<?xml version="1.0" standalone="no"?><!DOCTYPE svg PUBLIC "-//W3C//DTD SVG 1.1//EN" "http://www.w3.org/Graphics/SVG/1.1/DTD/svg11.dtd"><svg t="1572833353965" class="icon" viewBox="0 0 1024 1024" version="1.1" xmlns="http://www.w3.org/2000/svg" p-id="1385" xmlns:xlink="http://www.w3.org/1999/xlink" width="200" height="200"><defs><style type="text/css"></style></defs><path d="M512 80c240 0 432 192 432 432S752 944 512 944 80 752 80 512 272 80 512 80M512 32C248 32 32 248 32 512s216 480 480 480 480-216 480-480S776 32 512 32L512 32 512 32z" p-id="1386"></path><path d="M596 512l126-126c24-24 24-60 0-84s-60-24-84 0L512 428 386 302c-24-24-60-24-84 0s-24 60 0 84L428 512l-126 126c-24 24-24 60 0 84s60 24 84 0L512 596l126 126c24 24 60 24 84 0s24-60 0-84L596 512 596 512z" p-id="1387"></path></svg>