<?xml version="1.0" standalone="no"?><!DOCTYPE svg PUBLIC "-//W3C//DTD SVG 1.1//EN" "http://www.w3.org/Graphics/SVG/1.1/DTD/svg11.dtd"><svg t="1572833454866" class="icon" viewBox="0 0 1024 1024" version="1.1" xmlns="http://www.w3.org/2000/svg" p-id="1863" xmlns:xlink="http://www.w3.org/1999/xlink" width="200" height="200"><defs><style type="text/css"></style></defs><path d="M981.333333 469.333333c-12.8 0-21.333333 8.533333-21.333333 21.333334v85.333333c0 46.933333-38.4 85.333333-85.333333 85.333333H149.333333c-46.933333 0-85.333333-38.4-85.333333-85.333333V149.333333c0-46.933333 38.4-85.333333 85.333333-85.333333h725.333334c46.933333 0 85.333333 38.4 85.333333 85.333333 0 12.8 8.533333 21.333333 21.333333 21.333334s21.333333-8.533333 21.333334-21.333334c0-70.4-57.6-128-128-128H149.333333C78.933333 21.333333 21.333333 78.933333 21.333333 149.333333v426.666667c0 70.4 57.6 128 128 128h725.333334c70.4 0 128-57.6 128-128v-85.333333c0-12.8-8.533333-21.333333-21.333334-21.333334z" p-id="1864"></path><path d="M981.333333 298.666667c-12.8 0-21.333333 8.533333-21.333333 21.333333v85.333333c0 12.8 8.533333 21.333333 21.333333 21.333334s21.333333-8.533333 21.333334-21.333334v-85.333333c0-12.8-8.533333-21.333333-21.333334-21.333333zM966.4 219.733333c-4.266667 4.266667-6.4 8.533333-6.4 14.933334 0 6.4 2.133333 10.666667 6.4 14.933333 4.266667 4.266667 8.533333 6.4 14.933333 6.4 6.4 0 10.666667-2.133333 14.933334-6.4 0-2.133333 2.133333-2.133333 2.133333-4.266667 0 0 2.133333-2.133333 2.133333-4.266666s0-2.133333 2.133334-4.266667v-4.266667c0-6.4-2.133333-10.666667-6.4-14.933333-8.533333-6.4-21.333333-6.4-29.866667 2.133333zM896 960H128c-12.8 0-21.333333 8.533333-21.333333 21.333333s8.533333 21.333333 21.333333 21.333334h768c12.8 0 21.333333-8.533333 21.333333-21.333334s-8.533333-21.333333-21.333333-21.333333zM832 170.666667h-66.133333c-8.533333-36.266667-42.666667-64-83.2-64s-72.533333 27.733333-83.2 64H192c-12.8 0-21.333333 8.533333-21.333333 21.333333s8.533333 21.333333 21.333333 21.333333h407.466667c8.533333 36.266667 42.666667 64 83.2 64s72.533333-27.733333 83.2-64H832c12.8 0 21.333333-8.533333 21.333333-21.333333s-8.533333-21.333333-21.333333-21.333333z m-149.333333 64c-23.466667 0-42.666667-19.2-42.666667-42.666667s19.2-42.666667 42.666667-42.666667 42.666667 19.2 42.666666 42.666667-19.2 42.666667-42.666666 42.666667zM682.666667 853.333333c12.8 0 21.333333-8.533333 21.333333-21.333333s-8.533333-21.333333-21.333333-21.333333H341.333333c-12.8 0-21.333333 8.533333-21.333333 21.333333s8.533333 21.333333 21.333333 21.333333h341.333334zM832 341.333333H424.533333c-8.533333-36.266667-42.666667-64-83.2-64s-72.533333 27.733333-83.2 64H192c-12.8 0-21.333333 8.533333-21.333333 21.333334s8.533333 21.333333 21.333333 21.333333h66.133333c8.533333 36.266667 42.666667 64 83.2 64s72.533333-27.733333 83.2-64H832c12.8 0 21.333333-8.533333 21.333333-21.333333s-8.533333-21.333333-21.333333-21.333334z m-490.666667 64c-23.466667 0-42.666667-19.2-42.666666-42.666666s19.2-42.666667 42.666666-42.666667 42.666667 19.2 42.666667 42.666667-19.2 42.666667-42.666667 42.666666zM832 512h-66.133333c-8.533333-36.266667-42.666667-64-83.2-64s-72.533333 27.733333-83.2 64H192c-12.8 0-21.333333 8.533333-21.333333 21.333333s8.533333 21.333333 21.333333 21.333334h407.466667c8.533333 36.266667 42.666667 64 83.2 64s72.533333-27.733333 83.2-64H832c12.8 0 21.333333-8.533333 21.333333-21.333334s-8.533333-21.333333-21.333333-21.333333z m-149.333333 64c-23.466667 0-42.666667-19.2-42.666667-42.666667s19.2-42.666667 42.666667-42.666666 42.666667 19.2 42.666666 42.666666-19.2 42.666667-42.666666 42.666667z" p-id="1865"></path></svg>