<?xml version="1.0" standalone="no"?><!DOCTYPE svg PUBLIC "-//W3C//DTD SVG 1.1//EN" "http://www.w3.org/Graphics/SVG/1.1/DTD/svg11.dtd"><svg t="1572833508396" class="icon" viewBox="0 0 1024 1024" version="1.1" xmlns="http://www.w3.org/2000/svg" p-id="2455" xmlns:xlink="http://www.w3.org/1999/xlink" width="200" height="200"><defs><style type="text/css"></style></defs><path d="M512 384H320c-17.7 0-32-14.3-32-32s14.3-32 32-32h192c17.7 0 32 14.3 32 32s-14.3 32-32 32zM704 544H320c-17.7 0-32-14.3-32-32s14.3-32 32-32h384c17.7 0 32 14.3 32 32s-14.3 32-32 32zM704 704H320c-17.7 0-32-14.3-32-32s14.3-32 32-32h384c17.7 0 32 14.3 32 32s-14.3 32-32 32z" p-id="2456"></path><path d="M776.7 960H247.3C146.2 960 64 877.8 64 776.7V247.3C64 146.2 146.2 64 247.3 64h529.5c101 0 183.3 82.2 183.3 183.3v529.4C960 877.8 877.8 960 776.7 960zM247.3 128C181.5 128 128 181.5 128 247.3v529.4c0 65.8 53.5 119.3 119.3 119.3h529.5c65.8 0 119.3-53.5 119.3-119.3V247.3c0-65.8-53.5-119.3-119.3-119.3H247.3z" p-id="2457"></path></svg>