<?xml version="1.0" standalone="no"?><!DOCTYPE svg PUBLIC "-//W3C//DTD SVG 1.1//EN" "http://www.w3.org/Graphics/SVG/1.1/DTD/svg11.dtd"><svg t="1572833464567" class="icon" viewBox="0 0 1024 1024" version="1.1" xmlns="http://www.w3.org/2000/svg" p-id="1981" xmlns:xlink="http://www.w3.org/1999/xlink" width="200" height="200"><defs><style type="text/css"></style></defs><path d="M934.89493333 587.19345778c-21.64849778 0-39.16458667 17.53543111-39.16458666 39.16458667v172.32099555c0 63.45159111-51.63349333 115.08508445-115.08508445 115.08508445h-553.16366222c-63.45159111 0-115.08508445-51.63349333-115.08508445-115.08508445v-553.1648c0-63.45159111 51.63349333-115.08508445 115.08508445-115.08508445h168.74609778c21.64849778 0 39.16458667-17.53543111 39.16458667-39.16458666s-17.51722667-39.16458667-39.16458667-39.16458667h-168.74609778c-106.63253333 0-193.41425778 86.76352-193.41425778 193.41425778v553.1648c0 106.63253333 86.78172445 193.41425778 193.41425778 193.41425778h553.1648c106.63253333 0 193.41425778-86.78172445 193.41425778-193.41425778v-172.32099555c0-21.62915555-17.51722667-39.16344889-39.16458667-39.1634489z" p-id="1982"></path><path d="M316.40576 447.87825778l-10.63253333 227.22446222c-0.49720889 11.01482667 3.63406222 21.74293333 11.43580444 29.52647111 7.34435555 7.36256 17.32608 11.47448889 27.69123556 11.47448889 0.61212445 0 1.22311111-0.01934222 1.83523555-0.03868445l227.22446223-10.65187555c9.75303111-0.45966222 18.97016889-4.53176889 25.85486222-11.43580445l347.01312-347.0336c64.33223111-64.31175111 55.64871111-177.63783111-19.31377778-252.63900444-75.00117333-74.92608-188.32725333-83.62780445-252.6208-19.31377778l-347.05180444 347.0336c-6.88469333 6.88469333-10.97728 16.12117333-11.43580445 25.85486222zM393.93166222 466.69596445l336.34304-336.32369778c33.23676445-33.21742222 98.17884445-24.28700445 141.85813333 19.33425778 43.67928889 43.69749333 52.51299555 108.65891555 19.31377778 141.85813333l-336.30663111 336.30435555-169.12725333 7.936 7.91779556-169.10904888z" p-id="1983"></path></svg>