<?xml version="1.0" standalone="no"?><!DOCTYPE svg PUBLIC "-//W3C//DTD SVG 1.1//EN" "http://www.w3.org/Graphics/SVG/1.1/DTD/svg11.dtd"><svg t="1572833474800" class="icon" viewBox="0 0 1024 1024" version="1.1" xmlns="http://www.w3.org/2000/svg" p-id="2093" xmlns:xlink="http://www.w3.org/1999/xlink" width="200" height="200"><defs><style type="text/css"></style></defs><path d="M983.1579648 490.01813333c-8.18326187 12.49553067-23.96433067 15.3255936-35.28676693 6.24667307L523.63810133 141.56322133c-0.2064384-0.1179648-0.38447787-0.2195456-0.55924053-0.3375104-3.63615573-2.88904533-7.979008-4.4433408-12.49553067-4.4433408s-8.8866816 1.55429547-12.55232853 4.4433408c-0.06007467 0.0589824-0.1769472 0.1179648-0.2654208 0.147456l-424.49851733 354.89163947c-11.26454613 9.07892053-27.04452267 6.2488576-35.25727574-6.24667307-8.15377067-12.49553067-5.69070933-29.97725867 5.60223574-39.12936106l424.8502272-355.06858667c0.2064384-0.0884736 0.41069227-0.27962027 0.55814826-0.44018347 12.23010987-9.5780864 26.574848-14.6374656 41.5629312-14.6374656 14.37313707 0 28.18921813 4.75245227 40.0392192 13.59435094 0.704512 0.425984 1.40793173 0.92514987 2.08186027 1.48329813l160.74233173 135.19202987 0-17.15841707c0-21.0305024 15.31139413-38.10372267 34.23054507-38.10372267l65.35140693 0c18.9202432 0 34.29061973 17.072128 34.29061974 38.10372267l0 124.42774187 130.236416 112.607232C988.87707307 460.04087467 991.31392 477.52260267 983.1579648 490.01813333zM476.5581312 259.25932373c0.11578027-0.11578027 0.20534613-0.14527147 0.29381973-0.29272746 9.91341227-7.7725696 21.5875584-11.95267413 33.7313792-11.95267414 12.20389547 0.0589824 23.87694933 4.20959573 33.82094507 12.10013014 0 0 0.147456 0.08738133 0.20534613 0.14527146l294.40846507 249.73694294c6.51209387 5.35210667 10.38527147 13.7854976 10.38527147 22.67327146l0 316.21884587c0 54.07484587-39.5706368 98.03093333-88.26279254 98.03093333L608.26036907 945.91931733 608.26036907 710.1874176c0-41.59133013-30.33115307-75.20692907-67.69978027-75.20692907l-70.221824 0c-37.36971947 0-67.6691968 33.61559893-67.6691968 75.20692907l0 235.73189973L259.99660373 945.91931733c-48.63317333 0-88.2900992-43.95608747-88.2900992-98.03093333L171.70650453 531.66953813c0-8.88777387 3.84150187-17.32007253 10.44206934-22.67327146L476.5581312 259.25932373z" p-id="2094"></path></svg>