<?xml version="1.0" standalone="no"?><!DOCTYPE svg PUBLIC "-//W3C//DTD SVG 1.1//EN" "http://www.w3.org/Graphics/SVG/1.1/DTD/svg11.dtd"><svg t="1572833553076" class="icon" viewBox="0 0 1024 1024" version="1.1" xmlns="http://www.w3.org/2000/svg" p-id="3037" xmlns:xlink="http://www.w3.org/1999/xlink" width="200" height="200"><defs><style type="text/css"></style></defs><path d="M512 107.4621875c54.6440625 0 107.6146875 10.685625 157.438125 31.7596875 48.1621875 20.3709375 91.4325 49.5496875 128.608125 86.72625s66.354375 80.446875 86.7253125 128.61C905.845625 404.3834375 916.53125 457.355 916.53125 512s-10.685625 107.6165625-31.7596875 157.441875c-20.3709375 48.163125-49.5496875 91.4334375-86.7253125 128.61-37.1765625 37.1765625-80.4459375 66.3553125-128.608125 86.72625C619.6146875 905.8521875 566.6440625 916.5378125 512 916.5378125s-107.6146875-10.685625-157.438125-31.7596875c-48.1621875-20.3709375-91.4325-49.5496875-128.608125-86.72625s-66.354375-80.446875-86.7253125-128.61C118.154375 619.6165625 107.46875 566.645 107.46875 512s10.685625-107.6165625 31.7596875-157.441875c20.3709375-48.163125 49.5496875-91.4334375 86.7253125-128.61s80.4459375-66.3553125 128.608125-86.72625C404.3853125 118.1478125 457.3559375 107.4621875 512 107.4621875M512 32.4621875C247.161875 32.4621875 32.46875 247.158125 32.46875 512s214.693125 479.5378125 479.53125 479.5378125S991.53125 776.841875 991.53125 512 776.838125 32.4621875 512 32.4621875L512 32.4621875z" p-id="3038"></path><path d="M475.802795 465.45678687c6.43066406-16.59320063-1.81072969-24.87121594-9.16552687-24.87121593-33.88952625 0-77.86798125 80.19323719-94.31414813 80.19323718-6.43066406 0-11.90057344-6.46746844-11.90057344-12.01062 0-16.59320063 40.28302031-55.28558344 52.18341094-67.25903343 36.62384062-35.03338594 84.26147438-61.78930687 137.40564-61.78930688 39.35870344 0 81.52716094 23.98407 48.52423125 113.41589344l-65.93170125 179.71380656c-5.50634813 13.8206175-15.55828875 36.88110375-15.55828875 51.62658656 0 6.42956531 3.62200969 12.89703375 10.9762575 12.89703375 27.45886219 0 77.86724813-78.34552031 90.69213844-78.34552031 4.54559344 0 10.97552531 5.54388469 10.97552531 13.82189906 0 26.71746844-107.17474406 141.02124-199.67761219 141.02124-32.9659425 0-55.87847906-15.63262969-55.87847906-50.66601562 0-44.234985 31.15447969-119.84619188 37.58514375-135.51525844L475.802795 465.45678687zM525.25061 283.85827625c0-40.54009969 34.81365938-73.72650188 75.0959475-73.72650187 36.66210938 0 63.23327625 24.87121594 63.23327625 62.67645281 0 42.4249875-34.81237781 73.76293969-76.01953125 73.76293969C550.01177938 346.57116687 525.25061 321.66351313 525.25061 283.85827625z" p-id="3039"></path></svg>