<?xml version="1.0" standalone="no"?><!DOCTYPE svg PUBLIC "-//W3C//DTD SVG 1.1//EN" "http://www.w3.org/Graphics/SVG/1.1/DTD/svg11.dtd"><svg t="1572833580604" class="icon" viewBox="0 0 1024 1024" version="1.1" xmlns="http://www.w3.org/2000/svg" p-id="3261" xmlns:xlink="http://www.w3.org/1999/xlink" width="200" height="200"><defs><style type="text/css"></style></defs><path d="M853.33333333 102.4L170.66666667 102.4C95.30026667 102.4 34.13333333 163.56693333 34.13333333 238.93333333l0 409.6c0 75.3664 61.16693333 136.53333333 136.53333334 136.53333334l136.32853333 0 0 69.76853333c0 25.6 14.336 48.60586667 37.2736 59.93813333 9.48906667 4.57386667 19.59253333 6.89493333 29.62773333 6.89493334 14.40426667 0 28.672-4.7104 40.61866667-13.85813334L573.91786667 785.06666667 853.33333333 785.06666667c75.3664 0 136.53333333-61.16693333 136.53333334-136.53333334L989.86666667 238.93333333C989.86666667 163.56693333 928.69973333 102.4 853.33333333 102.4zM921.6 648.53333333c0 37.75146667-30.5152 68.26666667-68.26666667 68.26666667l-290.74773333-0.06826667c-7.50933333 0-14.81386667 2.4576-20.75306667 7.03146667l-166.63893333 131.14026667 0-104.0384c0-18.8416-15.29173333-34.06506667-34.06506667-34.06506667L170.66666667 716.8c-37.75146667 0-68.26666667-30.5152-68.26666667-68.26666667L102.4 238.93333333c0-37.75146667 30.5152-68.26666667 68.26666667-68.26666666l682.66666666 0c37.75146667 0 68.26666667 30.5152 68.26666667 68.26666666L921.6 648.53333333zM307.2 375.46666667C269.44853333 375.46666667 238.93333333 405.98186667 238.93333333 443.73333333s30.5152 68.26666667 68.26666667 68.26666667 68.26666667-30.5152 68.26666667-68.26666667S344.95146667 375.46666667 307.2 375.46666667zM512 375.46666667C474.24853333 375.46666667 443.73333333 405.98186667 443.73333333 443.73333333s30.5152 68.26666667 68.26666667 68.26666667 68.26666667-30.5152 68.26666667-68.26666667S549.75146667 375.46666667 512 375.46666667zM716.8 375.46666667c-37.75146667 0-68.26666667 30.5152-68.26666667 68.26666666s30.5152 68.26666667 68.26666667 68.26666667 68.26666667-30.5152 68.26666667-68.26666667S754.55146667 375.46666667 716.8 375.46666667z" p-id="3262"></path></svg>