<?xml version="1.0" standalone="no"?><!DOCTYPE svg PUBLIC "-//W3C//DTD SVG 1.1//EN" "http://www.w3.org/Graphics/SVG/1.1/DTD/svg11.dtd"><svg t="1572833443204" class="icon" viewBox="0 0 1024 1024" version="1.1" xmlns="http://www.w3.org/2000/svg" p-id="1746" xmlns:xlink="http://www.w3.org/1999/xlink" width="200" height="200"><defs><style type="text/css"></style></defs><path d="M770.82666688 440c38.98666687 0 70.58666625 32.23999969 70.58666625 72v336c0 39.76000031-31.60000031 72-70.58666625 72H253.17333312c-38.98666687 0-70.58666625-32.23999969-70.58666625-72V512c0-39.76000031 31.60000031-72 70.58666625-72h517.65333375z m-1e-8-72H253.17333312C175.20000031 368 111.99999969 432.48000031 111.99999969 512v336C111.99999969 927.51999969 175.20000031 992 253.17333312 992h517.65333375C848.79999969 992 912.00000031 927.51999969 912.00000031 848V512c0-79.51999969-63.19999969-144-141.17333344-144zM512 104c90.96 0 164.69333344 75.19999969 164.69333344 168v96H347.30666656V272c0-92.80000031 73.73333344-168 164.69333344-168zM512 32c-129.94666688 0-235.30666687 107.46666656-235.30666687 240v168h470.61333374V272c0-132.53333344-105.33333375-240-235.30666687-240z m0 756c-19.49333344 0-35.30666625-16.10666625-35.30666625-36v-144c0-19.89333375 15.81333375-36 35.30666625-36 19.49333344 0 35.30666625 16.10666625 35.30666625 36V752c0 19.89333375-15.81333375 36-35.30666625 36z" p-id="1747"></path></svg>