<?xml version="1.0" standalone="no"?><!DOCTYPE svg PUBLIC "-//W3C//DTD SVG 1.1//EN" "http://www.w3.org/Graphics/SVG/1.1/DTD/svg11.dtd"><svg t="1572833561410" class="icon" viewBox="0 0 1024 1024" version="1.1" xmlns="http://www.w3.org/2000/svg" p-id="3149" xmlns:xlink="http://www.w3.org/1999/xlink" width="200" height="200"><defs><style type="text/css"></style></defs><path d="M836.35950933 977.48148528H187.64049067c-61.51645867 0-111.47527965-49.95882098-111.47527965-111.47527965V173.79070103c0-61.51645867 49.95882098-111.47527965 111.47527965-111.47527964h473.24176688c18.14424842 0 35.29429143 6.95943775 48.21896153 19.63555651l217.85525665 212.26285131c13.29749712 12.9246701 20.87831325 30.94464285 20.87831325 49.46171829V866.00620563c0 61.51645867-49.95882098 111.47527965-111.47527965 111.47527965zM187.64049067 124.32898276c-27.21637262 0-49.33744261 22.12106998-49.33744262 49.3374426v692.2155046c0 27.21637262 22.12106998 49.33744261 49.33744262 49.3374426h648.71901866c27.21637262 0 49.33744261-22.12106998 49.33744262-49.3374426V343.6755475c0-1.86413511-0.74565405-3.72827022-2.11268647-4.97102697L665.72900883 126.31739354c-1.36703242-1.24275675-2.98261618-1.98841078-4.84675128-1.98841078H187.64049067z" p-id="3150"></path><path d="M277.36752735 408.92027639c-17.15004302 0-31.06891852-13.9188755-31.06891852-31.06891853v-137.94599822c0-17.15004302 13.9188755-31.06891852 31.06891852-31.06891851s31.06891852 13.9188755 31.06891852 31.06891851v137.94599822c0 17.15004302-13.9188755 31.06891852-31.06891852 31.06891853zM732.21649445 977.48148528c-17.15004302 0-31.06891852-13.9188755-31.0689185-31.06891852V600.30481446c0-27.21637262-22.12106998-49.33744261-49.33744262-49.3374426H364.23622352c-23.61237808 0-42.75083188 19.13845381-42.75083187 42.75083187v352.8186387c0 17.15004302-13.9188755 31.06891852-31.06891853 31.06891852s-31.06891852-13.9188755-31.06891851-31.06891852V593.71820373c0-57.78818845 47.10048048-104.88866892 104.88866891-104.88866892h287.57390981c61.51645867 0 111.47527965 49.95882098 111.47527965 111.47527965v346.1077523c0 17.15004302-13.9188755 31.06891852-31.06891853 31.06891852z" p-id="3151"></path></svg>