<?xml version="1.0" standalone="no"?><!DOCTYPE svg PUBLIC "-//W3C//DTD SVG 1.1//EN" "http://www.w3.org/Graphics/SVG/1.1/DTD/svg11.dtd"><svg t="1572833523585" class="icon" viewBox="0 0 1024 1024" version="1.1" xmlns="http://www.w3.org/2000/svg" p-id="2684" xmlns:xlink="http://www.w3.org/1999/xlink" width="200" height="200"><defs><style type="text/css"></style></defs><path d="M1003.71440071 945.8593701L744.41657799 686.12493767c57.551104-69.18008377 92.23429006-158.10777543 92.23429006-255.19484701 0-220.34633159-178.32692281-398.9689856-398.30999495-398.9689856S40.02971421 210.58375907 40.02971421 430.93009066c0 220.34400256 178.32925184 398.9689856 398.31232284 398.9689856 96.93105607 0 185.71321117-34.74605739 254.77802894-92.39263346l259.30015062 259.73676146c7.08473515 7.09870706 16.36533134 10.6463141 25.64825542 10.6463141s18.56584931-3.54760704 25.64592754-10.6463141C1017.88620003 983.06208995 1017.88620003 960.05678421 1003.71440071 945.8593701zM438.3408731 757.22610802c-179.62394738 0-325.75694848-146.37750272-325.75694848-326.29601736s146.1330011-326.29368832 325.75694848-326.29368832c179.62161949 0 325.75927751 146.37517369 325.75927751 326.29368832S617.96365653 757.22610802 438.3408731 757.22610802z" p-id="2685"></path></svg>