<?xml version="1.0" standalone="no"?><!DOCTYPE svg PUBLIC "-//W3C//DTD SVG 1.1//EN" "http://www.w3.org/Graphics/SVG/1.1/DTD/svg11.dtd"><svg t="1572833337275" class="icon" viewBox="0 0 1024 1024" version="1.1" xmlns="http://www.w3.org/2000/svg" p-id="1268" xmlns:xlink="http://www.w3.org/1999/xlink" width="200" height="200"><defs><style type="text/css"></style></defs><path d="M512 989.86666667C248.08106667 989.86666667 34.13333333 775.91893333 34.13333333 512S248.08106667 34.13333333 512 34.13333333s477.86666667 213.94773333 477.86666667 477.86666667-213.94773333 477.86666667-477.86666667 477.86666667z m0-68.26666667c226.2016 0 409.6-183.3984 409.6-409.6S738.2016 102.4 512 102.4 102.4 285.7984 102.4 512s183.3984 409.6 409.6 409.6z m-96.52906667-284.7744l313.71946667-313.7536a34.06506667 34.06506667 0 0 1 48.29866667 0 34.06506667 34.06506667 0 0 1 0 48.26453333l-337.88586667 337.88586667a34.0992 34.0992 0 0 1-48.19626667 0.06826667L246.44266667 564.3264a33.9968 33.9968 0 0 1 0.06826666-48.19626667 34.23573333 34.23573333 0 0 1 48.19626667-0.06826666l120.76373333 120.76373333z" p-id="1269"></path></svg>