<?xml version="1.0" standalone="no"?><!DOCTYPE svg PUBLIC "-//W3C//DTD SVG 1.1//EN" "http://www.w3.org/Graphics/SVG/1.1/DTD/svg11.dtd"><svg t="1572833434676" class="icon" viewBox="0 0 1024 1024" version="1.1" xmlns="http://www.w3.org/2000/svg" p-id="1628" xmlns:xlink="http://www.w3.org/1999/xlink" width="200" height="200"><defs><style type="text/css"></style></defs><path d="M511.93599969 991.39200031a480.83200031 480.83200031 0 0 1-353.91999938-155.74400062l-18.97600031-20.38399969 18.97600031-20.38399969a481.632 481.632 0 0 1 353.91999938-155.74400062c134.17600031 0 263.52 56.76799969 353.92000031 155.74400062l18.97600031 20.38399969-18.94400062 20.38399969a480.83200031 480.83200031 0 0 1-353.91999938 155.74400062z m-289.27999969-176.12800031a420.79999969 420.79999969 0 0 0 289.27999969 115.488 420.79999969 420.79999969 0 0 0 289.28000062-115.488 420.79999969 420.79999969 0 0 0-289.28000062-115.488 420.79999969 420.79999969 0 0 0-289.27999969 115.51999969z m289.75999969-219.80800031c-84.576 0-153.6-68.89600031-153.6-153.312 0-84.41599969 69.024-153.34399969 153.6-153.34399969 84.60799969 0 153.63199969 68.928 153.63200062 153.34399969a153.504 153.504 0 0 1-153.6 153.312z m0-245.98399969a93.05599969 93.05599969 0 0 0-92.832 92.67199969 93.05599969 93.05599969 0 0 0 92.832 92.67200062 93.05599969 93.05599969 0 0 0 92.86400062-92.67200062 92.76799969 92.76799969 0 0 0-92.86400062-92.67199969z" p-id="1629"></path><path d="M141.47199969 708.032A415.2 415.2 0 0 1 92.864 512c0-230.94400031 188.16-418.24000031 419.07199969-418.24000031 230.94400031 0 419.07199969 187.776 419.07200062 418.24000031 0 68.41600031-16.992 135.87199969-48.60800062 195.552 15.552 14.56000031 30.144 30.07999969 43.776 46.59199969A475.23199969 475.23199969 0 0 0 991.77600031 512c0-264.41599969-215.35999969-479.35999969-480.32000062-479.35999969C246.97599969 33.08799969 32.096 248.03199969 32.096 512c0 85.40800031 22.848 169.344 66.11200031 242.14399969 13.12000031-16.00000031 27.71200031-31.55200031 43.26399938-46.08z" p-id="1630"></path></svg>