<?xml version="1.0" standalone="no"?><!DOCTYPE svg PUBLIC "-//W3C//DTD SVG 1.1//EN" "http://www.w3.org/Graphics/SVG/1.1/DTD/svg11.dtd"><svg t="1572833515857" class="icon" viewBox="0 0 1024 1024" version="1.1" xmlns="http://www.w3.org/2000/svg" p-id="2573" xmlns:xlink="http://www.w3.org/1999/xlink" width="200" height="200"><defs><style type="text/css"></style></defs><path d="M554.41635555 588.89557333c-2.87630222 31.38446222-22.82837333 46.05724445-42.52558222 46.05724445-14.63637333 0 0 0 0 0-18.71416889-3.53166222-33.24131555-11.50520889-39.61287111-43.25376l-25.74108444-296.73244445c0-29.81888 36.26325333-56.21532445 67.02876444-56.21532444s63.8976 27.59793778 63.8976 57.38040889L554.41635555 588.89557333zM512 673.76469333c-30.76551111 0-55.74200889 24.94008889-55.74200889 55.74200889s24.94008889 55.77841778 55.74200889 55.77841778 55.74200889-24.97649778 55.74200889-55.77841778c0-30.76551111-24.94008889-55.74200889-55.74200889-55.74200889zM953.23932445 512c0 243.68469333-197.51822222 441.20291555-441.27573334 441.20291555-243.64828445 0-441.20291555-197.51822222-441.20291556-441.20291555s197.55463111-441.23932445 441.20291556-441.23932445c243.72110222 0 441.27573333 197.55463111 441.27573334 441.23932445zM871.53777778 512c0-198.57408-160.96369778-359.50136889-359.53777778-359.50136889S152.49863111 313.42592 152.49863111 512c0 198.53767111 160.92728889 359.50136889 359.50136889 359.50136889S871.53777778 710.53767111 871.53777778 512z" p-id="2574"></path></svg>